<?xml version="1.0" encoding="UTF-8" standalone="no"?>
<!-- Created with Inkscape (http://www.inkscape.org/) -->

<svg
   width="1000mm"
   height="1000mm"
   viewBox="0 0 1000 1000"
   version="1.1"
   id="svg1"
   xml:space="preserve"
   inkscape:version="1.4.4 (dcaf3e7d9e, 2026-05-05)"
   sodipodi:docname="Fishes.svg"
   inkscape:export-filename="Food.png"
   inkscape:export-xdpi="25.4"
   inkscape:export-ydpi="25.4"
   xmlns:inkscape="http://www.inkscape.org/namespaces/inkscape"
   xmlns:sodipodi="http://sodipodi.sourceforge.net/DTD/sodipodi-0.dtd"
   xmlns:xlink="http://www.w3.org/1999/xlink"
   xmlns="http://www.w3.org/2000/svg"
   xmlns:svg="http://www.w3.org/2000/svg"><sodipodi:namedview
     id="namedview1"
     pagecolor="#ffffff"
     bordercolor="#999999"
     borderopacity="1"
     inkscape:showpageshadow="2"
     inkscape:pageopacity="0"
     inkscape:pagecheckerboard="0"
     inkscape:deskcolor="#d1d1d1"
     inkscape:document-units="mm"
     inkscape:zoom="0.1767767"
     inkscape:cx="1105.915"
     inkscape:cy="2259.9132"
     inkscape:window-width="1920"
     inkscape:window-height="1172"
     inkscape:window-x="0"
     inkscape:window-y="0"
     inkscape:window-maximized="1"
     inkscape:current-layer="layer1"
     showgrid="true"><inkscape:grid
       id="grid44"
       units="mm"
       originx="0"
       originy="0"
       spacingx="250"
       spacingy="250"
       empcolor="#0099e5"
       empopacity="0.30196078"
       color="#0099e5"
       opacity="0.14901961"
       empspacing="5"
       enabled="true"
       visible="true" /></sodipodi:namedview><defs
     id="defs1"><linearGradient
       id="linearGradient3"
       inkscape:collect="always"><stop
         style="stop-color:#ffffff;stop-opacity:1;"
         offset="0.49954143"
         id="stop3" /><stop
         style="stop-color:#000000;stop-opacity:1;"
         offset="0.49954143"
         id="stop4" /></linearGradient><linearGradient
       id="linearGradient27"
       inkscape:collect="always"><stop
         style="stop-color:#c7c6bb;stop-opacity:1;"
         offset="0.0829144"
         id="stop29" /><stop
         style="stop-color:#e0dfd2;stop-opacity:1;"
         offset="0.27983189"
         id="stop30" /><stop
         style="stop-color:#e0dfd2;stop-opacity:1;"
         offset="0.74667966"
         id="stop27" /><stop
         style="stop-color:#e0ae6e;stop-opacity:1;"
         offset="1"
         id="stop28" /></linearGradient><linearGradient
       inkscape:collect="always"
       xlink:href="#linearGradient27"
       id="linearGradient28"
       x1="104.30315"
       y1="240.47476"
       x2="104.30315"
       y2="258.58109"
       gradientUnits="userSpaceOnUse" /><linearGradient
       inkscape:collect="always"
       xlink:href="#linearGradient3"
       id="linearGradient4"
       x1="843.95605"
       y1="847.65424"
       x2="843.95605"
       y2="912.61688"
       gradientUnits="userSpaceOnUse" /></defs><g
     inkscape:label="Layer 1"
     inkscape:groupmode="layer"
     id="layer1"><g
       id="g32"
       inkscape:label="Squid"
       transform="matrix(10.312679,0,0,10.312679,-888.89505,-2102.4576)"><path
         style="fill:url(#linearGradient28);fill-opacity:1;stroke:none;stroke-width:0.2;stroke-dasharray:none;stroke-opacity:1;paint-order:markers stroke fill"
         d="m 95.249999,246.69088 2.645833,9.09505 0.529167,-0.19843 0.330729,-6.25078 c 0,0 3.638022,10.88099 3.935672,10.94713 0.29766,0.0662 1.05834,-0.0661 1.05834,-0.0661 l 0.16536,-10.98021 0.72761,-0.95912 0.42994,1.25677 0.29766,10.31875 0.39688,0.39688 0.95911,0.0331 c 0,0 3.63802,-8.56588 3.60495,-10.15338 -0.0331,-1.5875 0.79375,5.98619 0.79375,5.98619 l 0.56224,-0.13229 c 0,0 2.38125,-8.56588 1.45521,-10.05416 -0.92605,-1.48829 -3.37344,-7.17683 -3.37344,-7.17683 l -13.394532,2.01745 z"
         id="path27" /><path
         style="fill:#cfccac;fill-opacity:1;stroke:none;stroke-width:0.2;stroke-dasharray:none;stroke-opacity:1;paint-order:markers stroke fill"
         d="m 93.728645,225.95416 -5.423959,-4.49791 c 0,0 12.501564,-16.66875 15.875004,-16.13959 3.37343,0.52917 -10.451045,20.6375 -10.451045,20.6375 z"
         id="path23" /><path
         style="fill:#cfccac;fill-opacity:1;stroke:none;stroke-width:0.199998;stroke-dasharray:none;stroke-opacity:1;paint-order:markers stroke fill"
         d="m 114.88115,225.95384 5.42386,-4.49791 c 0,0 -12.50133,-16.66875 -15.87471,-16.13959 -3.37338,0.52917 10.45085,20.6375 10.45085,20.6375 z"
         id="path23-6" /><path
         style="fill:#d1d4c2;fill-opacity:1;stroke:none;stroke-width:0.2;stroke-dasharray:none;stroke-opacity:1;paint-order:markers stroke fill"
         d="m 91.545836,238.8526 c 0,0 0.395357,-6.65787 1.25677,-9.85573 1.238742,-4.59863 3.407375,-8.91282 5.556247,-13.16302 1.886997,-3.73224 6.416147,-10.78177 6.416147,-10.78177 0,0 4.21557,7.2608 6.01927,11.04635 2.1434,4.4985 4.55778,8.97144 5.68854,13.82448 0.74218,3.18532 0.66146,9.78959 0.66146,9.78959 l -5.55625,1.91823 -7.80521,0.85989 -7.143747,-0.92604 -3.373437,-0.66146 z"
         id="path24"
         sodipodi:nodetypes="csscsscccccc" /><ellipse
         style="fill:#fff428;fill-opacity:1;stroke:none;stroke-width:0.2;stroke-dasharray:none;stroke-opacity:1;paint-order:markers stroke fill"
         id="path25"
         cx="97.622978"
         cy="243.55722"
         rx="4.2085285"
         ry="3.6132162" /><ellipse
         style="fill:#543221;fill-opacity:1;stroke:none;stroke-width:0.2;stroke-dasharray:none;stroke-opacity:1;paint-order:markers stroke fill"
         id="path26"
         cx="97.438118"
         cy="243.60112"
         rx="2.256757"
         ry="1.6253328" /><ellipse
         style="fill:#fff428;fill-opacity:1;stroke:none;stroke-width:0.2;stroke-dasharray:none;stroke-opacity:1;paint-order:markers stroke fill"
         id="path25-6"
         cx="-111.48516"
         cy="243.60497"
         rx="4.2085118"
         ry="3.6132162"
         transform="scale(-1,1)" /><ellipse
         style="fill:#543221;fill-opacity:1;stroke:none;stroke-width:0.2;stroke-dasharray:none;stroke-opacity:1;paint-order:markers stroke fill"
         id="path26-4"
         cx="-111.83372"
         cy="243.97627"
         rx="2.2567482"
         ry="1.6253328"
         transform="scale(-1,1)" /></g></g></svg>
