<?xml version="1.0" encoding="UTF-8" standalone="no"?>
<!-- Uploaded to: SVG Repo, www.svgrepo.com, Transformed by: SVG Repo Mixer Tools -->

<svg
   width="800px"
   height="800px"
   viewBox="0 0 24 24"
   fill="none"
   version="1.1"
   id="svg1"
   sodipodi:docname="Settings.svg"
   inkscape:version="1.4.4 (dcaf3e7d9e, 2026-05-05)"
   xml:space="preserve"
   xmlns:inkscape="http://www.inkscape.org/namespaces/inkscape"
   xmlns:sodipodi="http://sodipodi.sourceforge.net/DTD/sodipodi-0.dtd"
   xmlns="http://www.w3.org/2000/svg"
   xmlns:svg="http://www.w3.org/2000/svg"><defs
     id="defs1" /><sodipodi:namedview
     id="namedview1"
     pagecolor="#ffffff"
     bordercolor="#999999"
     borderopacity="1"
     inkscape:showpageshadow="2"
     inkscape:pageopacity="0"
     inkscape:pagecheckerboard="0"
     inkscape:deskcolor="#d1d1d1"
     inkscape:zoom="0.83350212"
     inkscape:cx="344.33026"
     inkscape:cy="386.92163"
     inkscape:window-width="1920"
     inkscape:window-height="1172"
     inkscape:window-x="0"
     inkscape:window-y="0"
     inkscape:window-maximized="1"
     inkscape:current-layer="svg1" /><g
     id="g6"
     transform="matrix(1.150471,0,0,1.150471,-2.2048236,-1.8056518)"><g
       id="SVGRepo_bgCarrier"
       stroke-width="0" /><g
       id="SVGRepo_tracerCarrier"
       stroke-linecap="round"
       stroke-linejoin="round" /><g
       id="SVGRepo_iconCarrier"
       style="fill:#989393;fill-opacity:1;stroke:#000000;stroke-width:0.57099;stroke-dasharray:none;stroke-opacity:1"><path
         fill-rule="evenodd"
         clip-rule="evenodd"
         d="M 14.2788,2.15224 C 13.9085,2 13.439,2 12.5,2 11.561,2 11.0915,2 10.7212,2.15224 10.2274,2.35523 9.83509,2.74458 9.63056,3.23463 9.53719,3.45834 9.50065,3.7185 9.48635,4.09799 9.46534,4.65568 9.17716,5.17189 8.69017,5.45093 8.20318,5.72996 7.60864,5.71954 7.11149,5.45876 6.77318,5.2813 6.52789,5.18262 6.28599,5.15102 5.75609,5.08178 5.22018,5.22429 4.79616,5.5472 4.47814,5.78938 4.24339,6.1929 3.7739,6.99993 3.30441,7.80697 3.06967,8.21048 3.01735,8.60491 2.94758,9.1308 3.09118,9.66266 3.41655,10.0835 3.56506,10.2756 3.77377,10.437 4.0977,10.639 4.57391,10.936 4.88032,11.4419 4.88029,12 c -3e-5,0.5581 -0.30643,1.0639 -0.78259,1.3608 -0.32398,0.2021 -0.53273,0.3636 -0.68125,0.5557 -0.32537,0.4208 -0.46896,0.9526 -0.3992,1.4785 0.05232,0.3944 0.28707,0.798 0.75655,1.605 0.46949,0.807 0.70424,1.2106 1.02226,1.4527 0.42402,0.3229 0.95993,0.4654 1.48983,0.3962 0.24189,-0.0316 0.48716,-0.1303 0.82544,-0.3077 0.49719,-0.2608 1.09177,-0.2712 1.57879,0.0078 0.48702,0.2791 0.77521,0.7953 0.79623,1.3531 0.0143,0.3794 0.05084,0.6396 0.14421,0.8633 0.20453,0.49 0.59684,0.8794 1.09064,1.0824 C 11.0915,22 11.561,22 12.5,22 c 0.939,0 1.4085,0 1.7788,-0.1522 0.4938,-0.203 0.8861,-0.5924 1.0906,-1.0824 0.0934,-0.2237 0.13,-0.4839 0.1443,-0.8634 0.021,-0.5577 0.3091,-1.0739 0.7961,-1.353 0.487,-0.2791 1.0816,-0.2686 1.5788,-0.0078 0.3383,0.1774 0.5835,0.276 0.8254,0.3076 0.5299,0.0693 1.0658,-0.0732 1.4898,-0.3961 0.3181,-0.2422 0.5528,-0.6457 1.0223,-1.4528 0.4695,-0.807 0.7042,-1.2105 0.7566,-1.6049 0.0697,-0.5259 -0.0739,-1.0578 -0.3992,-1.4786 -0.1486,-0.1921 -0.3573,-0.3536 -0.6813,-0.5556 -0.4761,-0.2969 -0.7825,-0.8028 -0.7825,-1.3609 0,-0.5581 0.3064,-1.0638 0.7825,-1.3607 0.3241,-0.2021 0.5328,-0.3635 0.6814,-0.5557 C 21.9089,9.66273 22.0525,9.13087 21.9828,8.60497 21.9304,8.21055 21.6957,7.80703 21.2262,7 20.7567,6.19297 20.522,5.78945 20.2039,5.54727 19.7799,5.22436 19.244,5.08185 18.7141,5.15109 18.4722,5.18269 18.2269,5.28136 17.8887,5.4588 17.3915,5.71959 16.7969,5.73002 16.3099,5.45096 15.8229,5.17191 15.5347,4.65566 15.5136,4.09794 15.4993,3.71848 15.4628,3.45833 15.3694,3.23463 15.1649,2.74458 14.7726,2.35523 14.2788,2.15224 Z M 12.5,15 c 1.6695,0 3.0228,-1.3431 3.0228,-3 0,-1.6569 -1.3533,-3 -3.0228,-3 -1.6695,0 -3.02284,1.3431 -3.02284,3 0,1.6569 1.35334,3 3.02284,3 z"
         fill="#1C274C"
         id="path1"
         style="fill:#989393;fill-opacity:1;stroke:#000000;stroke-width:0.57099;stroke-dasharray:none;stroke-opacity:1" /></g><ellipse
       style="fill:#7e7c7c;fill-opacity:1;stroke:none;stroke-width:0.628642;stroke-dasharray:none;stroke-opacity:1"
       id="path2"
       cx="11.661637"
       cy="4.507822"
       rx="0.89981776"
       ry="0.8725583" /><ellipse
       style="display:none;fill:#000000;fill-opacity:1;stroke:none;stroke-width:0.63753;stroke-dasharray:none;stroke-opacity:1"
       id="path4"
       cx="13.18982"
       cy="11.742312"
       rx="1.2343584"
       ry="1.6065747" /><ellipse
       style="fill:#7e7c7c;fill-opacity:1;stroke:none;stroke-width:0.540413;stroke-dasharray:none;stroke-opacity:1"
       id="path2-1"
       cx="19.258287"
       cy="13.860159"
       rx="0.71985424"
       ry="0.80602473" /><ellipse
       style="fill:#7e7c7c;fill-opacity:1;stroke:none;stroke-width:0.451048;stroke-dasharray:none;stroke-opacity:1"
       id="path2-9"
       cx="6.5905118"
       cy="16.65567"
       rx="0.70185786"
       ry="0.57588845" /><ellipse
       style="fill:#7e7c7c;fill-opacity:1;stroke:none;stroke-width:0.231307;stroke-dasharray:none;stroke-opacity:1"
       id="path2-9-6"
       cx="5.118197"
       cy="15.745545"
       rx="0.35992712"
       ry="0.29532743" /><g
       id="g5"
       inkscape:label="g5"
       transform="matrix(0.74090242,0,0,0.74090242,2.1869661,4.3581504)"
       style="display:none"><path
         style="fill:#7e7a7a;fill-opacity:1;stroke:#292828;stroke-width:0.63753;stroke-dasharray:none;stroke-opacity:1"
         d="m 11.857329,14.057183 c -0.580815,-0.154243 -1.091485,0.559347 -1.500053,1.000039 -0.19502,0.210353 -0.342825,0.474291 -0.4218905,0.750026 -0.093417,0.325786 -0.1428297,0.690618 -0.046869,1.015664 0.063431,0.214859 0.2110205,0.413009 0.3906385,0.546895 0.450334,0.335677 1.036844,0.474293 1.593808,0.546894 0.289968,0.0378 0.602156,0.04261 0.875033,-0.0625 0.425862,-0.164038 0.730514,-0.548134 1.078164,-0.84378 0.210592,-0.17909 0.341144,-0.495725 0.609398,-0.562522 0.0993,-0.02473 0.204646,0.03382 0.296887,0.07813 0.181226,0.08706 0.315421,0.250436 0.484392,0.359388 0.135205,0.08718 0.269412,0.183092 0.421891,0.234385 0.244354,0.0822 0.508493,0.09111 0.765654,0.109383 0.342898,0.02437 0.707337,0.115016 1.031288,0 0.303564,-0.107777 0.583262,-0.333794 0.750027,-0.609396 0.217343,-0.359191 0.29165,-0.816664 0.25001,-1.234422 -0.0213,-0.213694 -0.118883,-0.4237 -0.25001,-0.593772 -0.156483,-0.202958 -0.378909,-0.356724 -0.609398,-0.468767 -0.265857,-0.129235 -0.617877,-0.04833 -0.859407,-0.218757 -1.520942,-1.073185 -2.036903,-3.034841 -4.694125,-0.275926 0,0 -0.165432,0.22904 -0.165438,0.229038 z"
         id="path3"
         sodipodi:nodetypes="sssssssssssssssssssss" /><path
         style="fill:none;fill-opacity:1;stroke:#000000;stroke-width:0.637531;stroke-linecap:round;stroke-dasharray:none;stroke-opacity:1"
         d="m 18.750077,15.210061 c 0,0 1.062804,-0.046 1.552626,0.126319 0.517975,0.182229 1.363831,0.923856 1.363831,0.923856"
         id="path5-0"
         sodipodi:nodetypes="csc" /><path
         style="fill:none;fill-opacity:1;stroke:#000000;stroke-width:0.637531;stroke-linecap:round;stroke-dasharray:none;stroke-opacity:1"
         d="m 18.282372,16.617237 c 0,0 1.058203,0.108951 1.517778,0.350638 0.485991,0.255577 1.215076,1.112265 1.215076,1.112265"
         id="path5-8-2"
         sodipodi:nodetypes="csc" /><path
         style="fill:none;fill-opacity:1;stroke:#000000;stroke-width:0.63753;stroke-linecap:round;stroke-dasharray:none;stroke-opacity:1"
         d="m 10.103924,16.059385 c 0,0 -1.0477206,0.184229 -1.4888657,0.458112 -0.4664995,0.289624 -1.1325555,1.196183 -1.1325555,1.196183"
         id="path5"
         sodipodi:nodetypes="csc" /><path
         style="fill:none;fill-opacity:1;stroke:#000000;stroke-width:0.63753;stroke-linecap:round;stroke-dasharray:none;stroke-opacity:1"
         d="m 10.864028,17.332622 c 0,0 -1.0098193,0.334549 -1.4064736,0.669641 -0.4194519,0.35435 -0.9466753,1.348088 -0.9466753,1.348088"
         id="path5-8"
         sodipodi:nodetypes="csc" /><ellipse
         style="fill:#686060;fill-opacity:1;stroke:none;stroke-width:0.1758;stroke-dasharray:none;stroke-opacity:1"
         id="path2-1-9"
         cx="17.029745"
         cy="16.437954"
         rx="0.24744992"
         ry="0.24813773" /><ellipse
         style="fill:#686060;fill-opacity:1;stroke:none;stroke-width:0.1758;stroke-dasharray:none;stroke-opacity:1"
         id="path2-1-9-9"
         cx="11.738526"
         cy="16.895042"
         rx="0.24744992"
         ry="0.24813773" /><ellipse
         style="fill:#686060;fill-opacity:1;stroke:none;stroke-width:0.1758;stroke-dasharray:none;stroke-opacity:1"
         id="path2-1-9-9-8"
         cx="17.574371"
         cy="16.016188"
         rx="0.24744992"
         ry="0.24813773" /><ellipse
         style="fill:#686060;fill-opacity:1;stroke:none;stroke-width:0.1758;stroke-dasharray:none;stroke-opacity:1"
         id="path2-1-9-9-8-3"
         cx="16.462696"
         cy="16.187099"
         rx="0.24744992"
         ry="0.24813773" /><ellipse
         style="fill:#686060;fill-opacity:1;stroke:none;stroke-width:0.1758;stroke-dasharray:none;stroke-opacity:1"
         id="path2-1-9-9-1"
         cx="10.762677"
         cy="16.469194"
         rx="0.24744992"
         ry="0.24813773" /><ellipse
         style="fill:#686060;fill-opacity:1;stroke:none;stroke-width:0.1758;stroke-dasharray:none;stroke-opacity:1"
         id="path2-1-9-9-1-1"
         cx="11.728324"
         cy="16.052181"
         rx="0.24744992"
         ry="0.24813773" /></g><path
       style="fill:none;fill-opacity:1;stroke:#000000;stroke-width:0.63753;stroke-linecap:round;stroke-dasharray:none;stroke-opacity:1"
       d="m 10.562036,12.432662 c 0,0 1.180671,-1.325504 1.972428,-1.323436 0.717662,0.0019 1.781549,1.208907 1.781549,1.208907"
       id="path6"
       sodipodi:nodetypes="cac" /></g></svg>
